<?xml version="1.0" standalone="no"?>
<!DOCTYPE svg PUBLIC "-//W3C//DTD SVG 20010904//EN"
 "http://www.w3.org/TR/2001/REC-SVG-20010904/DTD/svg10.dtd">
<svg version="1.0" xmlns="http://www.w3.org/2000/svg"
 width="190.000000pt" height="190.000000pt" viewBox="0 0 190.000000 190.000000"
 preserveAspectRatio="xMidYMid meet">
<metadata>
Created by potrace 1.11, written by Peter Selinger 2001-2013
</metadata>
<g transform="translate(0.000000,190.000000) scale(0.100000,-0.100000)"
fill="#000000" stroke="none">
<path d="M1098 1513 c18 -2 45 -2 60 0 15 2 0 4 -33 4 -33 0 -45 -2 -27 -4z"/>
<path d="M971 1494 c-86 -31 -194 -117 -236 -189 -31 -52 -48 -131 -39 -175 7
-33 8 -31 15 29 11 91 48 158 125 230 73 68 101 85 176 105 30 8 42 15 28 15
-14 0 -45 -7 -69 -15z"/>
<path d="M680 1433 c-54 -63 -98 -148 -112 -220 -1 -5 -5 -23 -9 -40 -4 -18
-4 -33 0 -33 4 0 13 28 20 62 18 87 51 148 144 266 5 6 7 12 4 12 -2 0 -24
-21 -47 -47z"/>
<path d="M1033 1385 c-107 -38 -183 -104 -218 -188 -19 -46 -19 -107 0 -133 8
-10 14 -26 14 -34 0 -10 -2 -11 -6 -2 -11 27 -23 9 -23 -35 l0 -46 -27 24 -28
24 28 -31 c16 -18 27 -42 27 -59 0 -22 3 -26 12 -17 6 6 11 31 10 55 -1 24 4
52 12 62 14 19 15 19 34 2 14 -13 18 -29 17 -60 -2 -45 3 -69 14 -63 11 7 7
146 -4 145 -5 -1 -9 -5 -8 -10 2 -5 -2 -9 -7 -9 -6 0 -10 9 -10 20 0 13 -5 18
-14 14 -11 -4 -18 7 -26 37 -46 169 203 331 434 284 51 -10 56 -10 40 2 -30
22 -119 44 -168 42 -25 -2 -71 -12 -103 -24z"/>
<path d="M480 1267 c-11 -24 -22 -63 -26 -87 -3 -25 -8 -56 -11 -70 -11 -48
-8 -220 3 -228 6 -4 23 -25 37 -48 27 -44 100 -120 132 -137 11 -5 -3 13 -32
41 -80 80 -116 137 -120 196 l-4 51 30 -60 c52 -104 124 -168 234 -210 117
-44 226 -28 288 43 16 18 18 21 4 10 -74 -62 -209 -79 -300 -38 -66 30 -156
118 -188 184 -15 30 -27 57 -27 59 0 10 61 13 68 3 4 -6 7 -28 7 -48 0 -21 5
-38 10 -38 6 0 10 4 10 9 0 23 14 19 37 -11 52 -68 192 -116 258 -90 19 8 12
9 -32 5 -65 -6 -120 15 -175 67 -31 29 -33 35 -33 101 0 83 -18 93 -22 12 -3
-55 -4 -57 -17 -34 -7 13 -13 49 -13 80 0 62 -6 80 -19 60 -7 -11 -9 -10 -9 4
0 9 -4 17 -9 17 -5 0 -7 -15 -4 -32 12 -70 11 -73 -29 -75 -42 -2 -49 11 -53
115 -2 62 2 90 23 160 15 46 4 40 -18 -11z"/>
<path d="M1031 1293 c-53 -19 -141 -100 -142 -131 -3 -83 -3 -84 59 -162 27
-35 27 -34 -3 -74 -34 -44 -19 -54 15 -11 l28 35 31 -37 c17 -22 30 -32 31
-23 0 8 -11 29 -24 45 l-24 30 25 33 c14 18 22 36 18 40 -4 4 -18 -8 -32 -25
l-25 -33 -35 46 c-68 89 -64 139 19 207 122 99 296 82 443 -43 50 -42 50 -42
-5 11 -78 74 -141 101 -249 105 -60 2 -99 -2 -130 -13z"/>
<path d="M1066 1189 c3 -5 15 -9 27 -9 35 0 118 -44 167 -88 43 -39 44 -41 28
-58 -11 -11 -18 -13 -18 -6 0 7 -4 12 -10 12 -5 0 -10 -12 -10 -27 l0 -27 -32
31 c-33 30 -69 53 -85 53 -4 -1 3 -7 17 -15 l25 -14 -28 -1 c-39 0 -66 -17
-78 -47 -21 -55 8 -99 76 -113 24 -5 34 -1 51 20 12 14 25 36 30 50 7 23 9 21
20 -25 18 -76 16 -138 -8 -202 -43 -117 -113 -194 -219 -243 -24 -11 -33 -17
-19 -14 85 20 203 127 255 230 32 64 37 124 21 234 -9 62 7 99 38 87 12 -5 16
-20 16 -66 0 -62 19 -99 21 -39 0 32 1 32 10 8 29 -71 11 -202 -40 -297 -16
-29 -25 -50 -20 -47 18 11 69 124 83 181 7 32 11 83 9 113 -3 53 -3 54 12 32
9 -12 21 -20 27 -16 5 4 -4 20 -23 40 l-32 33 27 36 c34 44 24 62 -10 20 -20
-25 -26 -28 -34 -15 -6 8 -9 22 -9 30 3 39 -2 70 -11 70 -5 0 -9 -3 -9 -7 4
-27 -6 -26 -40 7 -21 20 -58 46 -83 57 -48 23 -151 46 -142 32z m124 -189 c22
-22 19 -53 -6 -81 -24 -27 -59 -24 -83 7 -25 32 -26 43 -5 72 19 28 67 29 94
2z"/>
<path d="M630 1090 c0 -5 5 -10 10 -10 6 0 10 5 10 10 0 6 -4 10 -10 10 -5 0
-10 -4 -10 -10z"/>
<path d="M685 1023 c-16 -36 -12 -44 26 -63 41 -21 51 -46 23 -57 -9 -3 -25
-1 -35 5 -11 7 -20 8 -24 2 -7 -11 26 -30 54 -30 11 0 27 10 35 22 19 27 5 56
-35 70 -18 6 -29 17 -29 28 0 23 19 30 43 18 21 -11 32 -5 22 11 -11 18 -72
13 -80 -6z"/>
<path d="M1070 871 c0 -16 -3 -38 -7 -48 -3 -10 -3 -15 1 -11 13 11 25 78 15
84 -5 3 -9 -8 -9 -25z"/>
<path d="M330 876 c0 -13 87 -140 109 -160 24 -22 29 -15 6 8 -9 8 -38 47 -65
87 -28 40 -50 69 -50 65z"/>
<path d="M1571 864 c0 -11 3 -14 6 -6 3 7 2 16 -1 19 -3 4 -6 -2 -5 -13z"/>
<path d="M1170 833 c0 -105 -128 -223 -278 -259 -48 -11 -150 -12 -197 0 -39
9 -110 37 -145 57 l-35 19 25 -21 c39 -33 114 -68 180 -83 168 -39 348 34 423
172 25 46 47 132 33 132 -3 0 -6 -8 -6 -17z"/>
<path d="M1573 822 c2 -12 6 -24 10 -28 3 -4 4 4 2 16 -6 30 -16 40 -12 12z"/>
<path d="M1055 734 c-64 -57 -138 -87 -230 -93 -62 -4 -72 -6 -45 -11 128 -23
233 17 302 113 25 35 22 34 -27 -9z"/>
<path d="M1575 761 c-3 -5 -2 -12 3 -15 5 -3 9 1 9 9 0 17 -3 19 -12 6z"/>
<path d="M1235 505 c-28 -30 -48 -55 -45 -55 6 0 47 43 84 88 36 42 11 22 -39
-33z"/>
<path d="M925 453 c-16 -3 -34 -8 -38 -13 -5 -4 10 -4 33 0 22 4 44 10 47 14
4 3 2 5 -3 5 -5 -1 -22 -4 -39 -6z"/>
<path d="M825 440 l-40 -7 43 -2 c23 0 42 4 42 9 0 6 -1 9 -2 9 -2 -1 -21 -5
-43 -9z"/>
</g>
</svg>
